<?xml version="1.0" encoding="UTF-8"?>
<svg version="1.1" xmlns="http://www.w3.org/2000/svg" width="730" height="600">
<path d="M0 0 C21.89648503 -0.21034609 43.79280321 -0.36900033 65.69009399 -0.46630955 C75.85770463 -0.51269536 86.02468712 -0.57592192 96.19189453 -0.67895508 C105.05484153 -0.76872813 113.91733359 -0.82673981 122.78072262 -0.84679645 C127.47307093 -0.85851904 132.16411789 -0.8860178 136.85604858 -0.95157051 C141.27561351 -1.01281567 145.69334561 -1.03147454 150.1132946 -1.01796913 C151.7322684 -1.02043841 153.35130556 -1.03825406 154.96991158 -1.07284927 C167.18758942 -1.32110064 167.18758942 -1.32110064 171.71676636 1.98030281 C173.74196071 4.22621199 175.39651243 6.44196918 177 9 C177.67289063 9.86367188 178.34578125 10.72734375 179.0390625 11.6171875 C179.56242188 12.36226562 180.08578125 13.10734375 180.625 13.875 C181.28757813 14.803125 181.95015625 15.73125 182.6328125 16.6875 C183.00180664 17.20570312 183.37080078 17.72390625 183.75097656 18.2578125 C186.30394013 21.81878748 188.90318761 25.34594313 191.5 28.875 C192.09433838 29.68300049 192.68867676 30.49100098 193.30102539 31.32348633 C197.8244028 37.45268359 202.42977303 43.51570098 207.0625 49.5625 C212.51894702 56.68532614 217.84313854 63.88325535 223.06005859 71.18286133 C227.98971881 78.05172378 233.12477206 84.75638664 238.26953125 91.46484375 C241.93301443 96.25283238 245.53447655 101.06695238 249 106 C253.10568369 111.84132 257.40899383 117.51930723 261.75 123.1875 C268.70248204 132.26666198 275.52458271 141.4324452 282.28222656 150.65722656 C285.180708 154.61030045 288.09088398 158.55474937 291 162.5 C294.55147873 167.31694816 298.10061882 172.1355494 301.640625 176.9609375 C306.76289329 183.93776072 311.88337223 190.90987858 317.1875 197.75 C321.11091718 202.81082477 324.90903674 207.94910625 328.67773438 213.125 C332.27855933 218.0540395 335.96898793 222.90932386 339.6875 227.75 C340.77756217 229.17561426 341.86741161 230.60139122 342.95703125 232.02734375 C344.83766593 234.48799276 346.73107756 236.93760158 348.63671875 239.37890625 C349.74466797 240.83103516 349.74466797 240.83103516 350.875 242.3125 C351.51179688 243.13363281 352.14859375 243.95476562 352.8046875 244.80078125 C354 247 354 247 353.95703125 248.9453125 C352.6129576 251.83095634 350.80091489 254.07454858 348.8125 256.5625 C347.89525494 257.72638506 346.98000683 258.89184574 346.06640625 260.05859375 C345.57156738 260.69007324 345.07672852 261.32155273 344.56689453 261.97216797 C341.73085527 265.64249239 338.99378029 269.38549608 336.25 273.125 C335.65662842 273.93219482 335.06325684 274.73938965 334.4519043 275.57104492 C332.05359482 278.83520495 329.65816206 282.10146249 327.26464844 285.36914062 C319.93178658 295.37801546 312.50447695 305.30427713 304.96582031 315.15917969 C298.19624425 324.02277637 291.58876628 333.00162777 285 342 C277.67225169 352.00761055 270.2912234 361.96431 262.75 371.8125 C257.91626717 378.12521079 253.16323182 384.47340662 248.58056641 390.97045898 C244.0306856 397.40866411 239.27177664 403.6885038 234.5234375 409.98095703 C227.02421233 419.91983397 219.58631336 429.90136328 212.21142578 439.93286133 C208.02248654 445.62592147 203.79443105 451.28798759 199.54345703 456.93481445 C196.22924321 461.34369651 192.94937566 465.77659525 189.68554688 470.22290039 C187.33997306 473.41580326 184.98365587 476.6007169 182.62792969 479.78613281 C181.1058841 481.85600525 179.60218893 483.9380158 178.1015625 486.0234375 C177.23499877 487.20358328 176.36785411 488.38330281 175.5 489.5625 C174.7678125 490.57441406 174.035625 491.58632813 173.28125 492.62890625 C169.89505588 496.14846076 166.51431331 496.88705504 161.70046425 497.24609566 C159.89467179 497.24333028 159.89467179 497.24333028 158.05239868 497.24050903 C157.04015498 497.24307231 157.04015498 497.24307231 156.00746191 497.24568737 C153.75958459 497.24896612 151.5120097 497.23800553 149.26416016 497.22705078 C147.64753222 497.22648632 146.03090376 497.22680392 144.41427612 497.22793579 C140.03456071 497.22850893 135.65495514 497.21676087 131.27526522 497.20278788 C126.6948582 497.19027409 122.11444858 497.1891095 117.5340271 497.18673706 C108.86437387 497.1805242 100.19477116 497.164116 91.52514017 497.14403808 C81.65337006 497.12167305 71.78159753 497.11068413 61.9098084 497.10064721 C41.60651075 497.07974961 21.30325856 497.04457739 1 497 C1.70359381 493.91300083 2.51004484 492.01677823 4.484375 489.5234375 C5.00040283 488.8624707 5.51643066 488.20150391 6.0480957 487.52050781 C6.60972412 486.81249023 7.17135254 486.10447266 7.75 485.375 C12.39581186 479.41636666 16.9249197 473.40124911 21.3125 467.25 C26.80836063 459.56540298 32.50601903 452.04970203 38.25561523 444.55371094 C42.46972341 439.04660873 46.57035371 433.48039823 50.56420898 427.81225586 C53.59196734 423.52913204 56.76093336 419.37212926 59.97900391 415.23095703 C63.64333406 410.49956493 67.20512207 405.69636591 70.75 400.875 C71.34409668 400.06699951 71.93819336 399.25899902 72.55029297 398.42651367 C74.94761135 395.162978 77.34248197 391.89765827 79.73535156 388.63085938 C87.20667581 378.43299247 94.7772032 368.32100408 102.45605469 358.27832031 C106.33511648 353.20044822 110.16626123 348.09738802 113.8984375 342.91015625 C121.15574899 332.86053346 128.5484168 322.90622237 136 313 C142.73302524 304.04882573 149.36614807 295.02478765 156 286 C158.37413335 282.77019482 160.74916194 279.5410514 163.125 276.3125 C163.69806885 275.53285889 164.2711377 274.75321777 164.86157227 273.94995117 C167.720913 270.0664901 170.59802368 266.19835672 173.51171875 262.35546875 C174.06778809 261.62094482 174.62385742 260.8864209 175.19677734 260.12963867 C176.24687125 258.74553937 177.3003987 257.36403599 178.35791016 255.9855957 C180.36645918 253.33821554 181.94122018 251.17633946 183 248 C181.7291696 245.86227062 180.43282755 243.97357551 178.9375 242 C178.48922852 241.39115967 178.04095703 240.78231934 177.57910156 240.1550293 C176.59019412 238.81411231 175.59661968 237.47662829 174.59912109 236.14208984 C172.95718684 233.94264997 171.33040317 231.73270135 169.70703125 229.51953125 C167.35491264 226.31457215 164.99661546 223.11432005 162.6328125 219.91796875 C160.26635825 216.71737416 157.90679885 213.51193041 155.5546875 210.30078125 C148.70050664 200.95150661 141.73567168 191.69701382 134.68676758 182.49365234 C130.56537278 177.09791524 126.55390445 171.64513622 122.64648438 166.09326172 C119.45549033 161.58153595 116.12145328 157.19058149 112.75 152.8125 C106.3018433 144.43750474 100.02421742 135.94439998 93.77490234 127.42041016 C90.81283465 123.38107878 87.84478107 119.34616267 84.875 115.3125 C84.29242432 114.52117676 83.70984863 113.72985352 83.10961914 112.91455078 C78.95031035 107.27206407 74.75333107 101.65899577 70.53857422 96.05786133 C66.65934261 90.8960323 62.82464255 85.70237005 59 80.5 C52.71987562 71.95954631 46.37482689 63.46990053 40 55 C33.02824358 45.7369903 26.09957575 36.44497501 19.23779297 27.10009766 C16.35289697 23.17564292 13.45359625 19.26383377 10.515625 15.37890625 C9.96519531 14.65058594 9.41476563 13.92226562 8.84765625 13.171875 C7.81147057 11.80380589 6.77256824 10.43778852 5.73046875 9.07421875 C3.51015388 6.14266095 1.57655966 3.31843286 0 0 Z M103 71 C104.37770468 74.59816211 105.75260661 77.1824191 108.25 80.125 C112.1732243 84.90201952 115.85339616 89.82160593 119.5 94.8125 C124.59119934 101.76771297 129.75962829 108.65650492 135 115.5 C140.65308284 122.88545734 146.21434109 130.32967374 151.70874023 137.83374023 C156.08782538 143.79958517 160.56072847 149.68885194 165.0625 155.5625 C170.66463244 162.87419074 176.12816322 170.26756338 181.49072266 177.75634766 C185.33335344 183.11161791 189.30603103 188.33876565 193.3515625 193.54296875 C196.5789032 197.72412382 199.69024067 201.99016672 202.8125 206.25 C207.38875122 212.49311418 212.0273544 218.67944931 216.75 224.8125 C218.32614469 226.87215554 219.89991674 228.93358095 221.47167969 230.99658203 C222.49532022 232.33843414 223.52204644 233.67793759 224.55175781 235.01513672 C226.00853322 236.91550258 227.44417951 238.83005163 228.875 240.75 C229.31038086 241.31050049 229.74576172 241.87100098 230.19433594 242.44848633 C231.95881659 244.85316052 232.98962885 246.48782451 233.05078125 249.5078125 C231.65133552 252.82694402 229.60131069 255.38887253 227.3125 258.125 C226.29938206 259.374116 225.289106 260.62554077 224.28125 261.87890625 C223.745 262.5455127 223.20875 263.21211914 222.65625 263.89892578 C219.7788505 267.54911742 217.05134938 271.30789525 214.3125 275.0625 C209.28482185 281.93516577 204.17684339 288.73900638 199 295.5 C193.93334839 302.11936454 188.92564506 308.77503254 184 315.5 C179.07434972 322.22497458 174.06633768 328.88038993 169 335.5 C161.54463781 345.24546624 154.25042139 355.10156314 147 365 C139.97078792 374.58770842 132.92542143 384.1475111 125.640625 393.54296875 C120.52350121 400.19563008 115.60678394 407.00219103 110.64648438 413.77197266 C108.48580991 416.6958035 106.28483431 419.58838169 104.07519531 422.4753418 C102.9039478 423.82526415 102.9039478 423.82526415 103 425 C111.43202362 425.30251187 119.86174823 425.53281465 128.29787254 425.67355824 C132.21633131 425.74114736 136.13105506 425.83261979 140.04736328 425.98071289 C143.83434639 426.12300331 147.6177638 426.19988901 151.40721512 426.23340416 C152.84530431 426.25725023 154.28321845 426.3038293 155.71976852 426.37449074 C163.5929369 426.85580499 163.5929369 426.85580499 170.57205963 423.74204636 C173.95686779 420.19532642 176.45404515 416.16900445 179 412 C180.21192475 410.33109222 181.43728057 408.67166645 182.6875 407.03125 C183.79272095 405.52160462 184.89689175 404.01118983 186 402.5 C190.76207279 396.00644012 195.59349983 389.58201081 200.5234375 383.21484375 C207.75076678 373.86234243 214.75705374 364.34063551 221.75 354.8125 C227.42339132 347.08451476 233.21138776 339.44997529 239.03808594 331.8371582 C244.00337114 325.3383352 248.87097279 318.77391367 253.70214844 312.17504883 C258.14481236 306.12220305 262.68386437 300.14758176 267.25 294.1875 C272.41435991 287.44292277 277.46314353 280.64895227 282.3359375 273.69140625 C284.47387952 270.68040026 286.7148524 267.7588799 288.9765625 264.83984375 C289.67128662 263.93693604 290.36601074 263.03402832 291.08178711 262.10375977 C292.46528605 260.31090555 293.85906585 258.52592915 295.26391602 256.74975586 C295.89225342 255.9325708 296.52059082 255.11538574 297.16796875 254.2734375 C298.02297974 253.18168213 298.02297974 253.18168213 298.89526367 252.06787109 C300.18954497 250.09106944 300.18954497 250.09106944 299.84375 247.9753418 C298.89825932 245.76181023 297.78000657 244.04548589 296.33203125 242.12109375 C295.77596191 241.3748877 295.21989258 240.62868164 294.64697266 239.85986328 C293.73890869 238.66079346 293.73890869 238.66079346 292.8125 237.4375 C291.52451386 235.71501251 290.23675969 233.99235155 288.94921875 232.26953125 C288.28970215 231.39119629 287.63018555 230.51286133 286.95068359 229.60791016 C284.55292173 226.40229161 282.1871966 223.17400576 279.82299805 219.94360352 C273.63725751 211.49702151 267.32550194 203.15307477 260.96362305 194.83862305 C255.97520541 188.30845131 251.07706067 181.71726145 246.21655273 175.09155273 C240.17419597 166.85913037 234.04124883 158.69571084 227.90429688 150.53369141 C224.07057256 145.43287206 220.24425076 140.32649682 216.41650391 135.22119141 C213.57429776 131.43083782 210.73108104 127.64126948 207.8828125 123.85546875 C202.63066627 116.87074476 197.42021777 109.85811784 192.25 102.8125 C186.96412243 95.61418536 181.5999169 88.4786457 176.1875 81.375 C175.1370752 79.99598511 175.1370752 79.99598511 174.06542969 78.58911133 C171.19586227 74.65570282 171.19586227 74.65570282 168 71 C165.97505769 70.90590521 163.9468013 70.88256878 161.91967773 70.88647461 C160.61840439 70.88655014 159.31713104 70.88662567 157.97642517 70.88670349 C156.54548098 70.89181091 155.11453718 70.89702692 153.68359375 70.90234375 C152.2277074 70.90420797 150.77182043 70.90563185 149.31593323 70.90663147 C145.47720621 70.91045635 141.63851681 70.92028636 137.79980469 70.93133545 C133.88542184 70.94155022 129.97103294 70.94612923 126.05664062 70.95117188 C118.37107657 70.96190866 110.68554355 70.97898471 103 71 Z " fill="#BBE0E3" transform="translate(49,51)"/>
<path d="M0 0 C1.67632764 0.00367257 3.35267615 0.00159763 5.0289917 -0.00575256 C9.55490711 -0.00946557 14.07629495 0.06665589 18.60116243 0.15770888 C23.3388008 0.23927767 28.07655661 0.24663547 32.81478882 0.26203918 C41.77569112 0.30235891 50.73451826 0.40891378 59.69450891 0.53958255 C69.89981471 0.68516421 80.10522252 0.75643366 90.3113091 0.82162321 C111.29512105 0.95731024 132.27706821 1.18579491 153.25927734 1.47583008 C151.82593734 4.41412088 150.26907817 6.97295808 148.31787109 9.60083008 C147.73908203 10.38329102 147.16029297 11.16575195 146.56396484 11.97192383 C145.94779297 12.79821289 145.33162109 13.62450195 144.69677734 14.47583008 C144.06126953 15.33305664 143.42576172 16.1902832 142.77099609 17.07348633 C138.74750486 22.4953861 134.69996049 27.89897456 130.63818359 33.29223633 C128.22763232 36.51817933 125.84289388 39.76196777 123.4609375 43.0090332 C117.67779496 50.89062575 111.82273325 58.7104766 105.88427734 66.47583008 C101.30393859 72.46591742 96.75205 78.4656698 92.34521484 84.58520508 C84.39223992 95.60618156 76.27267256 106.49849057 68.00927734 117.28833008 C63.17549918 123.601006 58.42250817 129.94923811 53.83984375 136.44628906 C49.28996295 142.88449419 44.53105398 149.16433388 39.78271484 155.45678711 C29.3527422 169.27984381 19.05538034 183.19825142 8.82177734 197.16723633 C1.92010998 206.57654876 -5.0834872 215.899437 -12.17480469 225.16674805 C-16.24957735 230.49761586 -20.26580457 235.85678604 -24.16259766 241.31958008 C-25.95186299 243.76431885 -27.83425676 246.12175914 -29.74072266 248.47583008 C-28.47065164 251.96966889 -27.01341412 254.72292687 -24.75634766 257.67114258 C-23.85903931 258.85365601 -23.85903931 258.85365601 -22.94360352 260.06005859 C-22.29915283 260.89851318 -21.65470215 261.73696777 -20.99072266 262.60083008 C-19.62150537 264.40366305 -18.25303291 266.20706192 -16.88525391 268.01098633 C-16.19125488 268.92380371 -15.49725586 269.83662109 -14.78222656 270.77709961 C-11.71082604 274.83728393 -8.69174669 278.93509998 -5.67822266 283.03833008 C-5.10628174 283.81563477 -4.53434082 284.59293945 -3.94506836 285.39379883 C-1.02949963 289.35723338 1.88129351 293.32415056 4.79052734 297.29223633 C10.96939553 305.71075226 17.21356218 314.06882526 23.578125 322.34790039 C28.40996302 328.64415474 33.10473622 335.03424118 37.77880859 341.44799805 C47.578951 354.87147807 57.51348829 368.19285882 67.51318359 381.46801758 C72.7571499 388.44065787 77.93661139 395.45909477 83.10644531 402.48681641 C86.30449612 406.83159069 89.51461741 411.16575943 92.75927734 415.47583008 C97.25395078 421.44636644 101.67863731 427.46768729 106.10693359 433.48754883 C110.00176 438.77879248 113.92780834 444.04399001 117.88037109 449.29223633 C120.2913013 452.51868645 122.67637415 455.76301986 125.05883789 459.01049805 C131.60619239 467.93434003 138.25563593 476.77131878 145.01733398 485.53417969 C145.65791748 486.36828369 146.29850098 487.2023877 146.95849609 488.06176758 C147.5239917 488.79443848 148.0894873 489.52710938 148.67211914 490.28198242 C150.3521072 492.60414405 151.81876764 494.99931688 153.25927734 497.47583008 C151.39642676 499.33868066 148.2798878 498.65131683 145.79042053 498.68356323 C144.76454186 498.6986034 144.76454186 498.6986034 143.71793836 498.71394742 C141.40891962 498.74622597 139.09988384 498.77104091 136.79077148 498.7956543 C135.14184244 498.81663943 133.4929167 498.83788576 131.84399414 498.859375 C116.76022824 499.04747448 101.67535314 499.15001298 86.59067631 499.2315197 C75.44023717 499.29305148 64.29182049 499.39647678 53.14231974 499.55421436 C45.3036145 499.66137876 37.46546478 499.71858387 29.62606138 499.73965085 C24.94426452 499.75370835 20.26511248 499.79002613 15.58412361 499.88088608 C11.17298481 499.9656193 6.76575165 499.98825657 2.35390472 499.96452332 C0.74051971 499.96649352 -0.87302267 499.99051888 -2.48568153 500.0389595 C-14.32060063 500.37613613 -14.32060063 500.37613613 -18.3604424 497.20400858 C-21.77048537 493.67699877 -24.23365938 489.66973809 -26.74072266 485.47583008 C-27.88091017 483.89965697 -29.03530248 482.33340813 -30.21728516 480.78833008 C-31.26774962 479.35154994 -32.31721893 477.91404172 -33.36572266 476.47583008 C-38.49330874 469.47503253 -43.71278644 462.55137875 -48.99072266 455.66333008 C-53.73581543 449.46794343 -58.3954158 443.23775371 -62.88110352 436.85253906 C-66.63813623 431.54124616 -70.59451159 426.38775164 -74.55322266 421.22583008 C-79.54919528 414.7105598 -84.46693717 408.1556927 -89.24072266 401.47583008 C-93.95455604 394.88102061 -98.80696828 388.40767616 -103.74072266 381.97583008 C-109.23311321 374.81413882 -114.6022792 367.58347475 -119.85546875 360.24487305 C-125.84787797 351.89130913 -132.03762876 343.68646744 -138.22949219 335.48022461 C-138.97755127 334.48804932 -138.97755127 334.48804932 -139.74072266 333.47583008 C-140.34126465 332.83371582 -140.94180664 332.19160156 -141.56054688 331.5300293 C-142.74072266 329.47583008 -142.74072266 329.47583008 -142.11425781 326.97827148 C-140.80912231 324.60044729 -139.45453296 322.55453135 -137.76416016 320.43676758 C-137.17924805 319.69604004 -136.59433594 318.9553125 -135.99169922 318.19213867 C-135.06309082 317.03319092 -135.06309082 317.03319092 -134.11572266 315.85083008 C-129.29160904 309.76078803 -124.61018364 303.64335402 -120.19384766 297.24926758 C-119.71431641 296.6640332 -119.23478516 296.07879883 -118.74072266 295.47583008 C-118.08072266 295.47583008 -117.42072266 295.47583008 -116.74072266 295.47583008 C-115.48242188 296.88671875 -115.48242188 296.88671875 -114.04541016 298.89379883 C-113.50271484 299.64274414 -112.96001953 300.39168945 -112.40087891 301.16333008 C-111.81177734 301.98833008 -111.22267578 302.81333008 -110.61572266 303.66333008 C-109.34389267 305.41840235 -108.07039356 307.17226603 -106.79541016 308.92504883 C-106.12993164 309.8407666 -105.46445312 310.75648438 -104.77880859 311.69995117 C-101.49481106 316.17276526 -98.11802589 320.57329609 -94.74072266 324.97583008 C-88.34238184 333.33426684 -82.06433423 341.77364953 -75.83837891 350.26098633 C-72.64037676 354.61996661 -69.3955316 358.94253627 -66.14306641 363.26098633 C-62.99753247 367.45457668 -59.90609061 371.68814818 -56.80322266 375.91333008 C-52.07534718 382.34765743 -47.27383688 388.70878375 -42.38134766 395.01879883 C-37.31935204 401.59978922 -32.45223424 408.33074385 -27.54833984 415.02978516 C-26.65356934 416.24057739 -26.65356934 416.24057739 -25.74072266 417.47583008 C-25.40128632 418.14669647 -25.06184998 418.81756287 -24.71212769 419.50875854 C-23.26021978 422.03016172 -22.0313269 423.66345215 -19.74072266 425.47583008 C-14.89487668 426.59970153 -10.0958119 426.4091241 -5.15478516 426.25708008 C-3.72849714 426.24214381 -2.30216785 426.23076332 -0.87582397 426.22277832 C2.86369786 426.1923499 6.60070126 426.11387842 10.3392334 426.02514648 C14.15989105 425.94304736 17.98095908 425.90671623 21.80224609 425.86645508 C29.28906673 425.78086548 36.77381811 425.64448309 44.25927734 425.47583008 C38.35565349 417.13572989 32.37064814 408.8846031 26.13427734 400.78833008 C21.42264877 394.63861626 16.75160107 388.47612228 12.22802734 382.18676758 C9.69103149 378.69336456 7.10232287 375.24024488 4.50927734 371.78833008 C3.99703613 371.10641602 3.48479492 370.42450195 2.95703125 369.72192383 C0.89702141 366.98124303 -1.16439123 364.24161956 -3.22607422 361.50219727 C-9.02448657 353.79554487 -14.78530927 346.06414003 -20.49072266 338.28833008 C-25.50237029 331.46154416 -30.59411644 324.70138908 -35.74072266 317.97583008 C-41.41072937 310.56586088 -46.99807535 303.10261125 -52.51538086 295.57836914 C-56.78101139 289.76474221 -61.09525715 283.98940377 -65.42822266 278.22583008 C-66.67440587 276.56183457 -67.92050138 274.89777338 -69.16650391 273.23364258 C-71.45948124 270.17345444 -73.76988788 267.12792767 -76.09619141 264.09301758 C-77.10295324 262.76247861 -78.10947872 261.43176076 -79.11572266 260.10083008 C-79.80347778 259.21862793 -79.80347778 259.21862793 -80.50512695 258.31860352 C-83.21231088 254.70902494 -85.070441 252.04159085 -84.74072266 247.47583008 C-82.74493763 243.95944693 -80.2318492 240.91325312 -77.67822266 237.78833008 C-76.18584946 235.90018214 -74.69499179 234.01083546 -73.20556641 232.12036133 C-72.07417236 230.69844482 -72.07417236 230.69844482 -70.91992188 229.24780273 C-67.76034423 225.22877466 -64.74714111 221.10992884 -61.74072266 216.97583008 C-56.81760619 210.24904933 -51.80715003 203.59527378 -46.74072266 196.97583008 C-40.34338448 188.61661066 -34.06435038 180.17803265 -27.83837891 171.69067383 C-24.63267402 167.32119447 -21.37983101 162.9883478 -18.11962891 158.65942383 C-15.70956457 155.43413247 -13.32529364 152.19101104 -10.94384766 148.94458008 C-5.2833669 141.23029657 0.44435127 133.57445858 6.25927734 125.97583008 C13.10953332 117.02122021 19.83069013 107.97941794 26.49316406 98.88452148 C29.6369081 94.59696568 32.79249994 90.31813898 35.94677734 86.03833008 C36.53539551 85.2389502 37.12401367 84.43957031 37.73046875 83.6159668 C38.28009277 82.86976074 38.8297168 82.12355469 39.39599609 81.35473633 C39.87770264 80.70061768 40.35940918 80.04649902 40.85571289 79.37255859 C42.3150265 77.40049259 43.78651448 75.43786432 45.25927734 73.47583008 C37.15770321 73.05566063 29.0607846 72.73751005 20.95095634 72.54321098 C17.1830765 72.44986056 13.42272266 72.32378859 9.65917969 72.11791992 C-6.46951244 70.69990045 -6.46951244 70.69990045 -21.42929077 75.15463257 C-25.78876472 79.18624949 -28.7123479 83.83729879 -31.42901611 89.07623291 C-33.66615406 93.16878693 -36.51493777 96.81055023 -39.30322266 100.53833008 C-40.38183788 102.03871454 -41.45773604 103.54105951 -42.52978516 105.04614258 C-46.18199917 110.11927876 -49.98614286 115.06975572 -53.80224609 120.02001953 C-57.79050087 125.20439315 -61.68842636 130.44891763 -65.55322266 135.72583008 C-70.55814737 142.55837222 -75.65087734 149.3163268 -80.80322266 156.03833008 C-86.39867162 163.34124101 -91.85749598 170.72454624 -97.21166992 178.20581055 C-101.23589024 183.8165571 -105.40233513 189.29797805 -109.63916016 194.74926758 C-112.09462103 197.93497703 -114.4396019 201.177557 -116.74072266 204.47583008 C-121.13562242 201.07168806 -124.37703412 197.60034459 -127.49072266 192.97583008 C-130.10773774 189.16349488 -132.73652107 185.41801726 -135.67822266 181.84692383 C-136.14905273 181.26942383 -136.61988281 180.69192383 -137.10498047 180.09692383 C-138.01186217 178.99511688 -138.93270949 177.90462234 -139.86865234 176.82739258 C-141.10009766 175.31567383 -141.10009766 175.31567383 -142.74072266 172.47583008 C-141.94702733 168.20971768 -139.15384945 165.19296602 -136.49072266 161.85083008 C-132.25597813 156.46940371 -128.15773288 151.0033703 -124.11572266 145.47583008 C-118.98717236 138.47572687 -113.76867512 131.55139996 -108.49072266 124.66333008 C-103.74948622 118.47297842 -99.09290034 112.24829921 -94.61132812 105.86791992 C-90.07400449 99.45308306 -85.26232167 93.24609134 -80.48730469 87.00756836 C-76.53913836 81.84602201 -72.63780326 76.66125488 -68.84228516 71.38598633 C-61.11250373 60.68210685 -53.22561566 50.09044809 -45.28515625 39.54223633 C-40.80516529 33.58276508 -36.38637478 27.57887453 -31.98681641 21.55981445 C-30.90954521 20.09116056 -29.81697905 18.63359211 -28.70874596 17.18815899 C-26.65473001 14.44188865 -26.65473001 14.44188865 -24.78852272 11.20903492 C-18.25005546 0.73515162 -11.8302427 -0.36476558 0 0 Z " fill="#F95819" transform="translate(529.74072265625,49.524169921875)"/>
<path d="M0 0 C55.77 0 111.54 0 169 0 C169 0.33 169 0.66 169 1 C147.40810047 1.13049349 125.81620032 1.26088406 104.22429943 1.39115143 C94.19925596 1.45163652 84.1742127 1.51215554 74.14916992 1.57275391 C65.41335904 1.62555916 56.67754777 1.67830131 47.94173604 1.73096704 C43.31439487 1.75886619 38.68705389 1.78679737 34.05971336 1.81480408 C29.70713026 1.84114683 25.35454666 1.86740541 21.00196266 1.89359856 C19.40195319 1.90324215 17.8019439 1.91291688 16.20193481 1.92262459 C14.0222122 1.93584499 11.84248895 1.94895473 9.6627655 1.96203613 C7.83070195 1.97309765 7.83070195 1.97309765 5.96162701 1.98438263 C3.97443881 1.99486155 1.98721582 2 0 2 C0 1.34 0 0.68 0 0 Z " fill="#D4ECED" transform="translate(49,51)"/>
</svg>
